<svg id="Layer_35" enable-background="new 0 0 64 64" height="512" viewBox="0 0 64 64" width="512" xmlns="http://www.w3.org/2000/svg"><path d="m29 45h2v2h-2z"/><path d="m25 46v1h2v-2h-1c-.551 0-1 .448-1 1z"/><path d="m29 49h2v2h-2z"/><path d="m25 50c0 .552.449 1 1 1h1v-2h-2z"/><path d="m27.811 26.225-6.809-6.809c-1.793.786-3.002 2.595-3.002 4.584 0 2.757 2.243 5 5 5 1.989 0 3.948-1.159 4.811-2.775z"/><path d="m41 29c2.757 0 5-2.243 5-5 0-1.989-1.209-3.798-3.001-4.584l-6.809 6.809c.862 1.616 2.821 2.775 4.81 2.775z"/><path d="m32.382 33h-.764l-1.553 3.105c-.043.085-.065.181-.065.277 0 .341.277.618.618.618h2.764c.341 0 .618-.277.618-.618 0-.096-.022-.191-.065-.276z"/><path d="m39 46c0-.552-.449-1-1-1h-1v2h2z"/><path d="m33 49h2v2h-2z"/><path d="m43 50v-.562c0-3.106 1.137-6.097 3.201-8.418 3.094-3.482 4.799-7.965 4.799-12.624v-.396c0-10.477-8.523-19-19-19s-19 8.523-19 19v.396c0 4.659 1.705 9.142 4.799 12.624 2.064 2.321 3.201 5.311 3.201 8.418v.562c0 2.757 2.243 5 5 5h12c2.757 0 5-2.243 5-5zm-.243-7.525-1.761-.949c.4-.742.86-1.458 1.367-2.128l1.596 1.205c-.446.589-.851 1.219-1.202 1.872zm1.993-2.834-1.5-1.322c1.644-1.864 2.807-4.127 3.365-6.543l1.949.45c-.632 2.738-1.951 5.302-3.814 7.415zm.957-22.934-1.218 1.218c2.149 1.225 3.511 3.509 3.511 6.075 0 3.86-3.14 7-7 7-3.067 0-5.987-1.962-6.943-4.667l-.21-.595 10.446-10.446zm-9.707 19.675c0 1.443-1.174 2.618-2.618 2.618h-2.764c-1.444 0-2.618-1.175-2.618-2.618 0-.404.096-.81.276-1.171l2.106-4.211h3.236l2.105 4.211c.181.361.277.767.277 1.171zm-4-25.382c2.606 0 5.109.577 7.439 1.716l-.878 1.797c-4.108-2.008-9.014-2.008-13.122 0l-.878-1.797c2.33-1.139 4.833-1.716 7.439-1.716zm-16 13c0-2.567 1.362-4.851 3.511-6.075l-1.218-1.218 1.414-1.414 10.446 10.446-.21.595c-.956 2.704-3.876 4.666-6.943 4.666-3.86 0-7-3.14-7-7zm7 26v-4c0-1.654 1.346-3 3-3h12c1.654 0 3 1.346 3 3v4c0 1.654-1.346 3-3 3h-12c-1.654 0-3-1.346-3-3z"/><path d="m39 50v-1h-2v2h1c.551 0 1-.448 1-1z"/><path d="m33 45h2v2h-2z"/><path d="m32 1c-8.802 0-17.221 3.763-23.098 10.324l1.49 1.334c5.498-6.138 13.374-9.658 21.608-9.658z"/><path d="m32 61v2c9.308 0 18.04-4.128 23.958-11.325l-1.545-1.27c-5.537 6.734-13.706 10.595-22.413 10.595z"/><path d="m5.029 33.259-1.998.092c.032.688.088 1.383.168 2.062l1.986-.232c-.074-.634-.127-1.281-.156-1.922z"/><path d="m4.579 41.461c.223.646.474 1.297.745 1.932l1.839-.785c-.252-.592-.486-1.196-.693-1.799z"/><path d="m5.478 37.085-1.965.375c.129.679.285 1.358.461 2.02l1.933-.516c-.164-.615-.309-1.247-.429-1.879z"/><path d="m59.421 22.539c-.224-.65-.475-1.3-.746-1.932l-1.839.786c.252.589.485 1.194.694 1.798z"/><path d="m58.522 26.915 1.965-.375c-.129-.677-.284-1.356-.461-2.02l-1.933.516c.165.616.309 1.248.429 1.879z"/><path d="m58.971 30.741 1.998-.092c-.032-.689-.088-1.383-.168-2.063l-1.986.233c.074.634.127 1.28.156 1.922z"/><path d="m60 40c-1.654 0-3 1.346-3 3 0 .815.329 1.553.858 2.094-.584 1.149-1.228 2.275-1.96 3.338l1.647 1.135c.79-1.147 1.485-2.361 2.112-3.602.115.014.226.035.343.035 1.654 0 3-1.346 3-3s-1.346-3-3-3z"/><path d="m4.328 18.033c-.109-.012-.216-.033-.328-.033-1.654 0-3 1.346-3 3s1.346 3 3 3 3-1.346 3-3c0-.82-.332-1.563-.867-2.105.764-1.504 1.654-2.949 2.668-4.299l-1.599-1.201c-1.094 1.455-2.052 3.015-2.874 4.638z"/></svg>