<svg id="Icons" height="512" viewBox="0 0 74 74" width="512" xmlns="http://www.w3.org/2000/svg"><path d="m37.008 66.474a1 1 0 0 1 -1-1v-27.28a1 1 0 0 1 2 0v25.912l24.092-7.666v-17.06a1 1 0 0 1 2 0v17.791a1 1 0 0 1 -.7.953l-26.094 8.3a1.01 1.01 0 0 1 -.298.05z"/><path d="m45.313 47.5a1 1 0 0 1 -.707-.293l-8.3-8.3a1 1 0 0 1 .329-1.633l26.092-10.681a1 1 0 0 1 1.118.253l7.906 8.7a1 1 0 0 1 -.368 1.6l-25.7 10.282a1 1 0 0 1 -.37.072zm-6.532-8.95 6.773 6.773 23.748-9.5-6.466-7.112z"/><path d="m28.708 47.5a1 1 0 0 1 -.372-.072l-25.697-10.285a1 1 0 0 1 -.368-1.6l7.906-8.7a1 1 0 0 1 1.118-.253l26.094 10.678a1 1 0 0 1 .329 1.633l-8.3 8.3a1 1 0 0 1 -.71.299zm-23.988-11.679 23.748 9.5 6.772-6.771-24.054-9.84z"/><path d="m37.008 66.474a1.01 1.01 0 0 1 -.3-.047l-26.094-8.3a1 1 0 0 1 -.7-.953v-17.794a1 1 0 0 1 2 0v17.06l24.094 7.667v-25.913a1 1 0 0 1 2 0v27.28a1 1 0 0 1 -1 1z"/><path d="m63.1 28.519a1 1 0 0 1 -.378-.074l-26.09-10.675a1 1 0 0 1 -.329-1.633l8.3-8.3a1 1 0 0 1 1.079-.221l25.7 10.284a1 1 0 0 1 .368 1.6l-7.906 8.7a1 1 0 0 1 -.744.319zm-24.319-12.031 24.055 9.84 6.464-7.111-23.748-9.5z"/><path d="m10.917 28.519a1 1 0 0 1 -.74-.327l-7.906-8.692a1 1 0 0 1 .368-1.6l25.7-10.282a1 1 0 0 1 1.079.221l8.3 8.3a1 1 0 0 1 -.329 1.633l-26.089 10.673a1 1 0 0 1 -.383.074zm-6.2-9.3 6.466 7.112 24.054-9.84-6.77-6.776z"/></svg>