<?xml version="1.0" encoding="iso-8859-1"?>
<!-- Generator: Adobe Illustrator 19.0.0, SVG Export Plug-In . SVG Version: 6.00 Build 0)  -->
<svg version="1.1" id="Capa_1" xmlns="http://www.w3.org/2000/svg" xmlns:xlink="http://www.w3.org/1999/xlink" x="0px" y="0px"
	 viewBox="0 0 204.8 204.8" style="enable-background:new 0 0 204.8 204.8;" xml:space="preserve">
<g>
	<g>
		<path d="M52.028,30.72l13.239-13.24c3.992-3.99,3.992-10.487,0.002-14.478C63.336,1.067,60.764,0,58.027,0s-5.309,1.067-7.24,3
			l-13.24,13.24L24.308,3.002C22.376,1.067,19.804,0,17.067,0s-5.309,1.067-7.24,3c-3.992,3.99-3.992,10.487,0,14.479l13.239,13.24
			L9.827,43.96c-3.992,3.99-3.992,10.487-0.002,14.478c1.932,1.935,4.504,3.002,7.241,3.002s5.309-1.067,7.24-3l13.24-13.24
			l13.239,13.239c1.932,1.935,4.504,3.002,7.241,3.002s5.309-1.067,7.24-3c3.992-3.99,3.992-10.487,0-14.479L52.028,30.72z
			 M60.438,53.615c-1.287,1.287-3.535,1.289-4.825-0.002L39.96,37.96c-0.666-0.667-1.539-1-2.413-1s-1.748,0.335-2.413,1
			L19.478,53.615c-1.287,1.287-3.534,1.289-4.825-0.002c-1.329-1.33-1.329-3.497,0-4.826l15.654-15.654
			c1.333-1.333,1.333-3.494,0-4.826L14.653,12.653c-1.329-1.329-1.329-3.497,0.002-4.828c1.287-1.287,3.535-1.289,4.825,0.002
			L35.133,23.48c1.331,1.333,3.495,1.333,4.826,0L55.615,7.825c1.287-1.287,3.535-1.289,4.825,0.002
			c1.329,1.329,1.329,3.497,0,4.826L44.786,28.307c-1.333,1.333-1.333,3.494,0,4.826L60.44,48.787
			C61.769,50.116,61.769,52.284,60.438,53.615z"/>
	</g>
</g>
<g>
	<g>
		<path d="M181.734,30.72l13.239-13.24c3.992-3.99,3.992-10.487,0.002-14.478C193.043,1.067,190.471,0,187.733,0
			c-2.737,0-5.309,1.067-7.24,3l-13.24,13.24L154.015,3.002C152.083,1.067,149.511,0,146.773,0s-5.309,1.067-7.24,3
			c-3.992,3.99-3.992,10.487,0,14.479l13.239,13.24l-13.239,13.24c-3.992,3.99-3.992,10.487-0.002,14.478
			c1.932,1.935,4.504,3.002,7.241,3.002s5.309-1.067,7.24-3l13.24-13.24l13.239,13.239c1.932,1.935,4.504,3.002,7.241,3.002
			c2.738,0,5.309-1.067,7.24-3c3.992-3.99,3.992-10.487,0-14.479L181.734,30.72z M190.145,53.615
			c-1.287,1.287-3.535,1.289-4.825-0.002L169.667,37.96c-0.666-0.667-1.539-1-2.413-1c-0.874,0-1.748,0.335-2.413,1l-15.655,15.655
			c-1.287,1.287-3.534,1.289-4.825-0.002c-1.329-1.33-1.329-3.497,0-4.826l15.654-15.654c1.333-1.333,1.333-3.494,0-4.826
			L144.36,12.653c-1.329-1.329-1.329-3.497,0.002-4.828c1.287-1.287,3.534-1.289,4.825,0.002L164.84,23.48
			c1.331,1.333,3.495,1.333,4.826,0l15.655-15.655c1.287-1.287,3.535-1.289,4.825,0.002c1.329,1.329,1.329,3.497,0,4.826
			l-15.654,15.654c-1.333,1.333-1.333,3.494,0,4.826l15.654,15.654C191.476,50.116,191.476,52.284,190.145,53.615z"/>
	</g>
</g>
<g>
	<g>
		<path d="M116.881,174.08l13.239-13.24c3.992-3.99,3.992-10.487,0.002-14.478c-1.932-1.935-4.506-3.002-7.241-3.002
			c-2.736,0-5.309,1.067-7.24,3l-13.24,13.24l-13.239-13.239c-1.932-1.935-4.506-3.002-7.241-3.002c-2.736,0-5.309,1.067-7.24,3
			c-3.992,3.99-3.992,10.487,0,14.479l13.239,13.24L74.68,187.32c-3.992,3.99-3.992,10.487-0.002,14.478
			c1.932,1.935,4.504,3.002,7.241,3.002s5.309-1.067,7.24-3l13.24-13.24l13.239,13.239c1.932,1.935,4.504,3.002,7.241,3.002
			c2.738,0,5.309-1.067,7.24-3c3.992-3.99,3.992-10.487,0-14.479L116.881,174.08z M125.292,196.975
			c-1.287,1.287-3.535,1.289-4.825-0.002l-15.654-15.654c-0.666-0.667-1.539-1-2.413-1s-1.748,0.334-2.413,1l-15.655,15.655
			c-1.287,1.287-3.534,1.289-4.825-0.002c-1.329-1.33-1.329-3.497,0-4.826l15.654-15.654c1.333-1.333,1.333-3.494,0-4.826
			l-15.654-15.654c-1.329-1.329-1.329-3.497,0.002-4.828c1.287-1.287,3.534-1.289,4.825,0.002l15.654,15.654
			c1.331,1.333,3.495,1.333,4.826,0l15.655-15.655c1.287-1.287,3.535-1.289,4.825,0.002c1.329,1.33,1.329,3.497,0,4.826
			l-15.654,15.654c-1.333,1.333-1.333,3.494,0,4.826l15.654,15.654C126.623,193.476,126.623,195.644,125.292,196.975z"/>
	</g>
</g>
<g>
	<g>
		<path d="M52.028,102.4l13.239-13.24c3.992-3.99,3.992-10.487,0.002-14.478c-1.932-1.935-4.506-3.002-7.241-3.002
			s-5.309,1.067-7.24,3l-13.24,13.24L24.308,74.682c-1.932-1.935-4.504-3.002-7.241-3.002s-5.309,1.067-7.24,3
			c-3.992,3.99-3.992,10.487,0,14.479l13.239,13.24L9.827,115.64c-3.992,3.99-3.992,10.487-0.002,14.478
			c1.932,1.935,4.504,3.002,7.241,3.002s5.309-1.067,7.24-3l13.24-13.24l13.239,13.239c1.932,1.935,4.504,3.002,7.241,3.002
			s5.309-1.067,7.24-3c3.992-3.99,3.992-10.487,0-14.479L52.028,102.4z M60.438,125.295c-1.287,1.287-3.535,1.289-4.825-0.002
			L39.96,109.64c-0.666-0.667-1.539-1-2.413-1s-1.748,0.335-2.413,1l-15.655,15.655c-1.287,1.287-3.534,1.289-4.825-0.002
			c-1.329-1.33-1.329-3.497,0-4.826l15.654-15.654c1.333-1.333,1.333-3.494,0-4.826L14.653,84.333
			c-1.329-1.329-1.329-3.497,0.002-4.828c1.287-1.287,3.535-1.289,4.825,0.002L35.133,95.16c1.331,1.333,3.495,1.333,4.826,0
			l15.655-15.655c1.287-1.287,3.535-1.289,4.825,0.002c1.329,1.329,1.329,3.497,0,4.826L44.786,99.987
			c-1.333,1.333-1.333,3.494,0,4.826l15.654,15.654C61.769,121.796,61.769,123.964,60.438,125.295z"/>
	</g>
</g>
<g>
	<g>
		<g>
			<path d="M102.4,13.653c-9.411,0-17.067,7.656-17.067,17.067s7.656,17.067,17.067,17.067s17.067-7.656,17.067-17.067
				S111.811,13.653,102.4,13.653z M102.4,40.96c-5.647,0-10.24-4.593-10.24-10.24s4.593-10.24,10.24-10.24
				c5.647,0,10.24,4.593,10.24,10.24S108.047,40.96,102.4,40.96z"/>
			<path d="M102.4,0C85.461,0,71.68,13.781,71.68,30.72s13.781,30.72,30.72,30.72s30.72-13.781,30.72-30.72S119.339,0,102.4,0z
				 M102.4,54.613c-13.175,0-23.893-10.718-23.893-23.893S89.225,6.827,102.4,6.827s23.893,10.718,23.893,23.893
				S115.576,54.613,102.4,54.613z"/>
		</g>
	</g>
</g>
<g>
	<g>
		<g>
			<path d="M102.4,71.68c-16.939,0-30.72,13.781-30.72,30.72s13.781,30.72,30.72,30.72s30.72-13.781,30.72-30.72
				S119.339,71.68,102.4,71.68z M102.4,126.293c-13.175,0-23.893-10.718-23.893-23.893S89.225,78.507,102.4,78.507
				s23.893,10.718,23.893,23.893S115.576,126.293,102.4,126.293z"/>
			<path d="M102.4,85.333c-9.411,0-17.067,7.656-17.067,17.067s7.656,17.067,17.067,17.067s17.067-7.656,17.067-17.067
				S111.811,85.333,102.4,85.333z M102.4,112.64c-5.647,0-10.24-4.593-10.24-10.24c0-5.647,4.593-10.24,10.24-10.24
				c5.647,0,10.24,4.593,10.24,10.24C112.64,108.047,108.047,112.64,102.4,112.64z"/>
		</g>
	</g>
</g>
<g>
	<g>
		<g>
			<path d="M34.133,143.36c-16.939,0-30.72,13.781-30.72,30.72s13.781,30.72,30.72,30.72s30.72-13.781,30.72-30.72
				S51.072,143.36,34.133,143.36z M34.133,197.973c-13.175,0-23.893-10.718-23.893-23.893s10.718-23.893,23.893-23.893
				s23.893,10.718,23.893,23.893S47.309,197.973,34.133,197.973z"/>
			<path d="M34.133,157.013c-9.411,0-17.067,7.656-17.067,17.067s7.656,17.067,17.067,17.067S51.2,183.491,51.2,174.08
				S43.544,157.013,34.133,157.013z M34.133,184.32c-5.647,0-10.24-4.593-10.24-10.24c0-5.647,4.593-10.24,10.24-10.24
				s10.24,4.593,10.24,10.24C44.373,179.727,39.781,184.32,34.133,184.32z"/>
		</g>
	</g>
</g>
<g>
	<g>
		<g>
			<path d="M170.667,143.36c-16.939,0-30.72,13.781-30.72,30.72s13.781,30.72,30.72,30.72s30.72-13.781,30.72-30.72
				S187.605,143.36,170.667,143.36z M170.667,197.973c-13.175,0-23.893-10.718-23.893-23.893s10.718-23.893,23.893-23.893
				s23.893,10.718,23.893,23.893S183.842,197.973,170.667,197.973z"/>
			<path d="M170.667,157.013c-9.411,0-17.067,7.656-17.067,17.067s7.656,17.067,17.067,17.067s17.067-7.656,17.067-17.067
				S180.077,157.013,170.667,157.013z M170.667,184.32c-5.647,0-10.24-4.593-10.24-10.24c0-5.647,4.593-10.24,10.24-10.24
				c5.647,0,10.24,4.593,10.24,10.24C180.907,179.727,176.314,184.32,170.667,184.32z"/>
		</g>
	</g>
</g>
<g>
	<g>
		<g>
			<path d="M170.667,85.333c-9.411,0-17.067,7.656-17.067,17.067s7.656,17.067,17.067,17.067s17.067-7.656,17.067-17.067
				S180.077,85.333,170.667,85.333z M170.667,112.64c-5.647,0-10.24-4.593-10.24-10.24c0-5.647,4.593-10.24,10.24-10.24
				c5.647,0,10.24,4.593,10.24,10.24C180.907,108.047,176.314,112.64,170.667,112.64z"/>
			<path d="M170.667,71.68c-16.939,0-30.72,13.781-30.72,30.72s13.781,30.72,30.72,30.72s30.72-13.781,30.72-30.72
				S187.605,71.68,170.667,71.68z M170.667,126.293c-13.175,0-23.893-10.718-23.893-23.893s10.718-23.893,23.893-23.893
				S194.56,89.225,194.56,102.4S183.842,126.293,170.667,126.293z"/>
		</g>
	</g>
</g>
<g>
</g>
<g>
</g>
<g>
</g>
<g>
</g>
<g>
</g>
<g>
</g>
<g>
</g>
<g>
</g>
<g>
</g>
<g>
</g>
<g>
</g>
<g>
</g>
<g>
</g>
<g>
</g>
<g>
</g>
</svg>
